 <svg version="1.0" xmlns="http://www.w3.org/2000/svg" width="700.000000pt" height="681.000000pt" viewBox="0 0 700.000000 681.000000" preserveAspectRatio="xMidYMid meet">
<metadata>
Created by potrace 1.12, written by Peter Selinger 2001-2015
</metadata>
<g transform="translate(0.000000,681.000000) scale(0.100000,-0.100000)" fill="#FFFFFF" stroke="none">
<path d="M573 6430 c-114 -6 -145 -20 -175 -81 -16 -32 -18 -93 -19 -771 0
-790 -2 -765 49 -811 38 -34 153 -38 1053 -35 973 3 917 -1 956 71 17 30 18
84 18 777 0 731 0 746 -20 780 -44 74 16 69 -920 72 -462 2 -886 1 -942 -2z
m1627 -208 c72 -35 70 -21 70 -642 0 -621 2 -607 -70 -642 -32 -17 -91 -18
-778 -18 -818 0 -793 -2 -832 62 -19 32 -20 49 -20 596 0 621 -2 603 63 642
31 19 56 20 782 20 694 0 753 -1 785 -18z"></path>
<path d="M2730 6417 c-37 -19 -68 -72 -75 -130 -3 -29 -5 -367 -3 -752 3 -778
0 -744 71 -782 30 -17 134 -18 1912 -18 1727 0 1882 1 1910 16 17 10 39 27 50
39 20 22 20 38 23 779 2 845 6 804 -68 843 -33 17 -110 18 -1915 18 -1484 0
-1885 -3 -1905 -13z m3637 -197 c65 -39 63 -21 63 -642 0 -541 -1 -564 -20
-595 -41 -68 98 -63 -1770 -63 -1861 0 -1739 -4 -1780 62 -19 32 -20 49 -20
591 0 615 -1 609 62 647 33 20 46 20 1733 20 1668 0 1701 0 1732 -20z"></path>
<path d="M527 4530 c-70 -5 -81 -9 -110 -38 l-32 -32 -3 -1988 c-2 -1876 -1
-1989 15 -2022 37 -73 -20 -69 1015 -71 883 -1 929 0 965 18 25 12 45 32 58
58 20 40 20 63 23 1945 2 1152 -1 1936 -7 1984 -8 68 -13 83 -39 109 -27 26
-40 31 -114 38 -98 9 -1658 9 -1771 -1z m1668 -196 c19 -9 42 -28 52 -42 17
-26 18 -109 21 -1820 2 -1975 7 -1841 -60 -1882 -32 -20 -48 -20 -786 -20
-831 0 -792 -3 -832 63 -20 31 -20 64 -20 1822 0 1684 1 1792 18 1824 9 19 33
43 52 53 33 17 76 18 778 18 659 0 748 -2 777 -16z"></path>
<path d="M2815 4530 c-93 -7 -118 -18 -142 -63 -17 -30 -18 -102 -18 -1157 0
-1057 1 -1127 18 -1157 9 -18 32 -41 50 -50 30 -17 92 -18 967 -18 875 0 937
1 967 18 18 9 41 32 50 50 17 30 18 100 21 1086 1 606 -1 1090 -7 1139 -8 74
-13 88 -39 114 -25 25 -41 31 -103 39 -85 9 -1642 9 -1764 -1z m1654 -198 c19
-10 43 -34 53 -53 17 -32 18 -77 16 -979 -3 -893 -4 -946 -21 -972 -41 -60
-15 -58 -829 -58 -831 0 -794 -3 -831 70 -16 33 -17 96 -15 982 3 943 3 947
24 975 11 15 36 33 55 40 25 9 228 12 774 12 699 1 742 0 774 -17z"></path>
<path d="M5075 4531 c-82 -7 -108 -20 -132 -64 -17 -30 -18 -102 -18 -1157 0
-1057 1 -1127 18 -1157 38 -71 -2 -68 827 -68 731 0 746 0 780 20 75 44 70
-41 70 1210 0 1093 -1 1121 -20 1152 -10 18 -34 40 -52 50 -31 17 -79 18 -718
19 -377 1 -716 -1 -755 -5z m1284 -199 c19 -10 43 -34 53 -53 17 -32 18 -82
18 -974 0 -925 0 -941 -20 -973 -38 -63 -32 -62 -642 -62 -619 0 -605 -1 -640
70 -17 33 -18 100 -18 970 0 1045 -4 983 70 1022 32 17 71 18 590 18 519 0
558 -1 589 -18z"></path>
<path fill="#74B943" d="M3735 1880 c-787 -4 -1005 -8 -1022 -18 -55 -31 -54 -16 -51 -742 l3
-670 33 -32 32 -33 1884 -3 c1494 -2 1892 0 1921 10 21 7 48 26 59 41 21 28
21 34 21 697 0 662 0 669 -21 697 -11 15 -32 33 -45 40 -30 14 -1342 20 -2814
13z"></path>
</g>
</svg>